<svg xmlns="http://www.w3.org/2000/svg" version="1.1" xmlns:xlink="http://www.w3.org/1999/xlink" xmlns:svgjs="http://svgjs.dev/svgjs" width="1000" height="1125" viewBox="0 0 1000 1125"><g transform="matrix(1,0,0,1,1.7053025658242404e-13,0)"><svg viewBox="0 0 320 360" data-background-color="#ffffff" preserveAspectRatio="xMidYMid meet" height="1125" width="1000" xmlns="http://www.w3.org/2000/svg" xmlns:xlink="http://www.w3.org/1999/xlink"><g id="tight-bounds" transform="matrix(1,0,0,1,0,0)"><svg viewBox="0 0 320 360" height="360" width="320"><g><svg></svg></g><g><svg viewBox="0 0 320 360" height="360" width="320"><g><path xmlns="http://www.w3.org/2000/svg" d="M20.961 227.22l3.726 4.658-1.863-6.056c-0.466-2.795-3.726 0.466-1.863 1.398M25.153 224.425c1.397 2.329 2.795 4.658 2.795 6.987 0 3.261 2.795 4.658 5.123 5.589-3.261-3.726-5.124-13.974-7.918-12.576M204.017 26.929c7.918 0 15.371-0.932 23.756 0.931 20.495 5.124 37.729 15.371 49.374 29.811l32.606 52.169c1.397 13.042 4.192 27.482 3.726 43.319 3.261 0 2.795-4.658 6.521-5.59-3.726 9.316-5.59 20.961-6.521 34.469-2.329-7.453 0-18.632 0.466-24.687-3.261 5.124-5.124 1.397-5.124-0.932 0.466-3.726-1.397-3.261-2.795-4.658-5.124-4.658-8.384-9.782-12.11-17.7 2.329-6.055 2.795-14.905-4.658-19.563-2.329-1.397-5.124-3.726-6.521-7.453-1.863-5.124-5.124-11.179-4.193-19.097 0.466-2.329-6.987 5.124-11.179 1.863-18.166-12.576-36.332-27.016-58.224-39.127-11.645 0-20.029-4.192-24.221-9.316-3.726-4.658-0.932-10.713 4.658-11.179 3.261 0 6.987-0.932 9.782 0.932 0.466-1.863 2.329-4.192 4.657-4.192M157.904 16.215l0.932 0.466c4.658 0.932 6.987 7.453 12.11 5.124 0 3.261 0.466 6.521-0.466 8.85-1.397 3.726-5.59 3.726-8.85 3.726-31.208-1.863-49.374 11.179-68.471 22.358-5.124 3.261-10.713 5.59-14.906 9.782-20.029 18.632-41.921 35.866-47.045 70.335l-4.192 38.195c-0.466 4.192-5.124 8.384-4.192 13.508l3.26 22.824c-3.261-3.261-5.124 0.932-4.192 2.795 0.466 1.397 2.329 6.055 5.124 1.863 3.726 6.987 7.453 20.495 12.576 26.55 15.837 18.632 36.332 35.4 53.101 52.169 4.192-0.932 7.453-0.932 8.384-3.727 1.397 2.795-1.397 5.59-3.726 6.056 7.453 4.658 15.837 8.85 27.016 9.781 14.44 0.932 27.948 3.261 40.524 6.522 6.521-1.863 13.042-2.795 20.029-3.261 2.329 0 3.726-3.726 6.521-4.658l0.466-4.658c2.795 4.192 2.329-1.397 0.466-4.192 3.261 2.795 4.192 5.124 5.589 6.987 0-1.397 3.726-6.521 3.727-0.466l0.931-6.055c1.397-0.932 1.863 5.124 3.261 0.931 1.397-4.192 4.192-0.932 6.987-2.329-0.932 1.863-0.466 5.59 2.794 3.261l3.727-3.261c2.329 5.59 6.055 3.261 7.918 2.329 20.495-13.042 40.99-28.413 60.553-43.784l-0.466 6.055 2.329-7.453c2.329 2.329 4.192 0.466 5.124-0.931 2.795-4.658 6.521-9.316 12.577-13.508-7.453 20.029-16.303 35.866-27.482 48.908l-4.658 5.59c0 3.261-0.932 7.453-4.658 7.918-1.863 0.466-5.59-0.932-8.384 1.863-1.397 1.863 3.261 5.59-0.466 2.795-3.261-2.329-6.521 0-10.248 0.932-2.795 0.932 1.863 3.726 2.795 5.589 0.932 1.863 1.863 3.726 1.398 6.056l-5.124-5.59c-6.055 3.261-9.782 9.316-14.906 13.974-2.329 1.863-1.397 5.124-1.397 7.918-3.261 0-6.987-0.932-8.85 0.932-1.397 1.863-0.932 4.658-0.932 7.453-4.658-0.466-5.124-7.453-9.315-6.056-4.192 0.932-8.85 1.397-12.577 3.727 2.795 5.59-4.658 2.329-3.726 3.26-6.987-4.192-13.042-7.453-20.495-4.658-15.837-5.124-35.4-2.795-49.84-0.931 0-2.329 0.466-4.658-0.466-5.124-0.932 2.329-3.726 1.397-3.26 1.397-8.85-6.055-17.7-9.782-27.016-14.905-8.384 0.932-16.303-3.261-18.632-5.59-6.521-6.055-13.974-2.795-20.029-4.192-13.042-3.261-17.7-16.769-19.098-26.084-0.932-4.658-4.658-6.521-6.055-6.056-6.055-19.563-15.371-37.263-22.824-55.429-1.863-4.658-1.397-9.316-1.397-14.44 2.329 0.932 4.658 0.466 4.192-2.794-2.329-15.371-7.918-27.016-13.974-38.195 3.261-15.837 3.726-34.469 11.179-48.443 6.521-12.576 18.632-19.098 27.016-29.811 2.795-3.726 2.795-8.85 5.59-12.11 9.316-9.316 18.632-19.098 28.879-27.482 4.658-3.726 10.247 0 17.234-1.397 2.329-8.384 11.645-15.837 20.495-13.508 3.726 0.932 11.179-8.85 13.508-9.782 3.726-1.397 1.863 3.726 1.863 6.987 8.85-6.987 20.961-10.713 32.14-14.906" fill="#ff6700" fill-rule="nonzero" stroke="none" stroke-width="1" stroke-linecap="butt" stroke-linejoin="miter" stroke-miterlimit="10" stroke-dasharray="" stroke-dashoffset="0" font-family="none" font-weight="none" font-size="none" text-anchor="none" style="mix-blend-mode: normal" data-fill-palette-color="tertiary"></path></g><g transform="matrix(1,0,0,1,64.00000000000001,123.1422319474836)"><svg viewBox="0 0 191.99999999999997 113.71553610503283" height="113.71553610503283" width="191.99999999999997"><g><svg viewBox="0 0 191.99999999999997 113.71553610503283" height="113.71553610503283" width="191.99999999999997"><g><svg viewBox="0 0 191.99999999999997 113.71553610503283" height="113.71553610503283" width="191.99999999999997"><g><svg viewBox="0 0 191.99999999999997 113.71553610503283" height="113.71553610503283" width="191.99999999999997"><g id="textblocktransform"><svg viewBox="0 0 191.99999999999997 113.71553610503283" height="113.71553610503283" width="191.99999999999997" id="textblock"><g><svg viewBox="0 0 191.99999999999997 113.71553610503283" height="113.71553610503283" width="191.99999999999997"><g transform="matrix(1,0,0,1,0,0)"><svg width="191.99999999999997" viewBox="3.049999952316284 -36.79999923706055 68.54999542236328 40.599998474121094" height="113.71553610503283" data-palette-color="#ff6700"><path d="M7.3 3.8L7.3 3.8Q4.9 3.1 3.98 2.4 3.05 1.7 3.05 0.65L3.05 0.65Q3.05-0.15 3.5-1.6 3.95-3.05 4.83-5.03 5.7-7 6.93-9.4 8.15-11.8 9.7-14.55L9.7-14.55Q8.4-14.6 7.38-14.63 6.35-14.65 5.7-14.65L5.7-14.65Q6-15.4 7.4-15.95 8.8-16.5 11.1-16.9L11.1-16.9Q13.05-20.15 15.28-23.1 17.5-26.05 19.75-28.53 22-31 24.25-32.88 26.5-34.75 28.55-35.85L28.55-35.85Q28.6-36.2 28.63-36.45 28.65-36.7 28.65-36.8L28.65-36.8Q29.35-36.8 30.53-36.45 31.7-36.1 32.83-35.6 33.95-35.1 34.83-34.58 35.7-34.05 35.8-33.7L35.8-33.7Q34.15-30.8 32.55-25.03 30.95-19.25 29.9-11.2L29.9-11.2Q29.65-9.2 29.48-6.65 29.3-4.1 29.3-0.95L29.3-0.95Q29.3 0.15 29.3 1.3 29.3 2.45 29.4 3.7L29.4 3.7Q29.3 3.75 29.2 3.75 29.1 3.75 28.8 3.75L28.8 3.75Q28.1 3.75 27.18 3.53 26.25 3.3 25.38 2.98 24.5 2.65 23.88 2.25 23.25 1.85 23.1 1.55L23.1 1.55Q23.05 0.9 23.05 0.28 23.05-0.35 23.05-1.05L23.05-1.05Q23.05-4.15 23.28-7.35 23.5-10.55 24.05-13.95L24.05-13.95Q23.35-14 22.2-14.08 21.05-14.15 19.63-14.2 18.2-14.25 16.57-14.33 14.95-14.4 13.4-14.45L13.4-14.45Q12.2-12.2 11.15-9.98 10.1-7.75 9.35-5.5L9.35-5.5Q8.5-3.1 7.98-0.7 7.45 1.7 7.3 3.8ZM26.6-26.25L26.6-26.25Q26.8-26.95 27.08-28.18 27.35-29.4 27.6-30.75L27.6-30.75Q26.35-30.3 24.83-29.1 23.3-27.9 21.68-26.13 20.05-24.35 18.38-22.13 16.7-19.9 15.15-17.4L15.15-17.4Q19.35-17.75 24.7-17.85L24.7-17.85Q25.1-19.95 25.58-22.03 26.05-24.1 26.6-26.25ZM71.6-27.55L71.6-27.55Q71.6-24.45 69.9-22.03 68.2-19.6 65.25-18L65.25-18Q67.15-16.7 68.27-14.83 69.4-12.95 69.4-10.7L69.4-10.7Q69.4-8 67.77-5.38 66.15-2.75 63.45-0.73 60.75 1.3 57.3 2.55 53.85 3.8 50.25 3.8L50.25 3.8Q46.35 3.8 43.42 2.33 40.5 0.85 38.85-1.85L38.85-1.85Q39.35-3.35 40.17-5.58 41-7.8 42-10.28 43-12.75 44.02-15.2 45.05-17.65 45.95-19.6L45.95-19.6Q47.85-23.85 49.35-26.65 50.85-29.45 52.1-31.1L52.1-31.1Q49.35-30.25 47.1-29.18 44.85-28.1 43.8-27.1L43.8-27.1Q43.35-27.4 42.87-28 42.4-28.6 41.97-29.33 41.55-30.05 41.27-30.8 41-31.55 40.95-32.15L40.95-32.15Q42.25-33.05 44.32-33.88 46.4-34.7 48.85-35.3 51.3-35.9 53.87-36.25 56.45-36.6 58.8-36.6L58.8-36.6Q64.8-36.6 68.2-34.2 71.6-31.8 71.6-27.55ZM52.55-15.6L52.55-15.6Q51.6-16.05 50.8-16.95L50.8-16.95Q49.65-14.4 48.62-11.95 47.6-9.5 46.8-7.4 46-5.3 45.5-3.75 45-2.2 44.95-1.5L44.95-1.5Q45.65-1.1 46.62-0.9 47.6-0.7 49.05-0.7L49.05-0.7Q52.45-0.7 55.55-1.65 58.65-2.6 61-4.23 63.35-5.85 64.75-7.95 66.15-10.05 66.15-12.35L66.15-12.35Q66.15-15.65 63.3-17.1L63.3-17.1Q59.4-15.5 54.5-15.5L54.5-15.5Q53.8-15.5 53.42-15.5 53.05-15.5 52.55-15.6ZM62.25-32.95L62.25-32.95Q61.2-32.95 60.02-32.83 58.85-32.7 57.55-32.45L57.55-32.45Q57.75-32.25 57.87-32.02 58-31.8 58.1-31.55L58.1-31.55Q57.65-30.95 57-29.8 56.35-28.65 55.55-27.13 54.75-25.6 53.87-23.75 53-21.9 52.1-19.95L52.1-19.95Q52.95-20.15 54.17-20.28 55.4-20.4 56.6-20.4L56.6-20.4Q57.25-20.4 57.87-20.35 58.5-20.3 59.1-20.2L59.1-20.2Q61.5-20.6 63.42-21.38 65.35-22.15 66.75-23.18 68.15-24.2 68.9-25.45 69.65-26.7 69.65-28.1L69.65-28.1Q69.65-30.5 67.75-31.73 65.85-32.95 62.25-32.95Z" opacity="1" transform="matrix(1,0,0,1,0,0)" fill="#ff6700" class="undefined-text-0" data-fill-palette-color="primary" id="text-0"></path></svg></g></svg></g></svg></g></svg></g><g></g></svg></g></svg></g></svg></g></svg></g><defs></defs></svg><rect width="320" height="360" fill="none" stroke="none" visibility="hidden"></rect></g></svg></g></svg>